<?xml version="1.0" encoding="iso-8859-1"?>
<!-- Generator: Adobe Illustrator 19.0.0, SVG Export Plug-In . SVG Version: 6.00 Build 0)  -->
<svg version="1.1" id="Capa_1" xmlns="http://www.w3.org/2000/svg" xmlns:xlink="http://www.w3.org/1999/xlink" x="0px" y="0px"
	 viewBox="0 0 512 512" style="enable-background:new 0 0 512 512;" xml:space="preserve">
<path style="fill:#EBA31E;" d="M284.048,118.165v42.91h-49.631v-42.91c0-6.555,5.315-11.88,11.88-11.88h25.87
	C278.723,106.284,284.048,111.609,284.048,118.165z"/>
<path style="fill:#FDDC65;" d="M284.048,118.165v42.91h-24.816v-42.91c0-6.555,5.315-11.88,11.88-11.88h1.055
	C278.723,106.284,284.048,111.609,284.048,118.165z"/>
<path style="fill:#B35222;" d="M353.709,161.079H164.75c-59.277,0-105.124,51.983-97.718,110.796l7.141,56.702L383.07,366.2
	l61.215-37.624l7.141-56.702C458.833,213.062,412.986,161.079,353.709,161.079z"/>
<path style="fill:#9B361F;" d="M240.744,161.079H164.75c-59.277,0-105.124,51.983-97.718,110.796l7.141,56.702h75.994l-7.141-56.702
	C135.62,213.062,181.467,161.079,240.744,161.079z"/>
<path style="fill:#FFD699;" d="M451.43,271.877l-2.823,22.375c-16.699-1.737-17.547-20.545-35.848-20.545
	c-19.191,0-19.191,20.68-38.392,20.68c-19.191,0-19.191-20.68-38.382-20.68c-19.191,0-19.191,20.68-38.381,20.68
	c-19.191,0-19.191-20.68-38.392-20.68c-19.18,0-19.18,20.68-38.371,20.68s-19.191-20.68-38.392-20.68
	c-18.581,0-19.17,19.377-36.593,20.618c-0.579,0.041-1.179,0.062-1.789,0.062c-19.191,0-19.191-20.68-38.381-20.68
	c-18.302,0-19.149,18.808-35.838,20.545l-2.812-22.375c-7.403-58.813,38.433-110.802,97.712-110.802h188.961
	C412.986,161.075,458.833,213.064,451.43,271.877z"/>
<path style="fill:#E5B776;" d="M143.023,271.877l2.833,22.448c-0.579,0.041-1.179,0.062-1.789,0.062
	c-19.191,0-19.191-20.68-38.381-20.68c-18.302,0-19.149,18.808-35.838,20.545l-2.812-22.375
	c-7.403-58.813,38.433-110.802,97.712-110.802h75.998C181.467,161.075,135.62,213.064,143.023,271.877z"/>
<path style="fill:#E3E9FF;" d="M471.399,343.264l-35.596,153.485C433.732,505.678,425.777,512,416.61,512H95.396
	c-9.166,0-17.122-6.322-19.193-15.251L40.607,343.264c-1.741-7.509,3.96-14.683,11.667-14.683h407.457
	C467.439,328.581,473.14,335.755,471.399,343.264z"/>
<g>
	<path style="fill:#ADD1FF;" d="M155.95,512l-60.56-0.001c-9.166,0-17.122-6.322-19.193-15.251L40.601,343.263
		c-1.741-7.508,3.959-14.683,11.666-14.683l79.538-0.003L155.95,512z"/>
	<polygon style="fill:#ADD1FF;" points="388.022,328.581 363.878,511.999 348.234,511.999 372.378,328.581 	"/>
	<polygon style="fill:#ADD1FF;" points="163.771,511.999 148.127,511.999 123.984,328.581 139.628,328.581 	"/>
</g>
<g>
	<path style="fill:#EF2E61;" d="M282.967,29.085L259.23,5.348l-23.737,23.737c-13.11,13.11-13.11,34.364,0,47.474l0,0
		c13.11,13.11,34.364,13.11,47.474,0l0,0C296.077,63.449,296.077,42.195,282.967,29.085z"/>
	<path style="fill:#EF2E61;" d="M151.918,220.014c-1.751,0-3.51-0.589-4.96-1.798c-3.29-2.742-3.735-7.632-0.993-10.922
		l15.509-18.611c2.743-3.29,7.632-3.735,10.922-0.993c3.29,2.742,3.735,7.632,0.993,10.922l-15.509,18.611
		C156.346,219.064,154.14,220.014,151.918,220.014z"/>
	<path style="fill:#EF2E61;" d="M271.588,213.944c-1.383,0-2.783-0.37-4.049-1.147l-20.648-12.671
		c-3.65-2.241-4.794-7.016-2.553-10.666c2.241-3.65,7.016-4.794,10.666-2.553l20.648,12.671c3.65,2.241,4.794,7.016,2.553,10.666
		C276.741,212.63,274.196,213.944,271.588,213.944z"/>
</g>
<path style="fill:#0DAACE;" d="M210.451,241.432c-0.005,0-0.01,0-0.016,0c-4.284-0.008-7.749-3.487-7.74-7.769l0.047-24.225
	c0.008-4.278,3.479-7.74,7.755-7.74c0.005,0,0.01,0,0.016,0c4.284,0.008,7.749,3.487,7.74,7.769l-0.047,24.225
	C218.198,237.969,214.728,241.432,210.451,241.432z"/>
<path style="fill:#EF2E61;" d="M366.534,230.303c-3.288,0-6.339-2.107-7.389-5.408l-7.339-23.087
	c-1.298-4.082,0.96-8.442,5.041-9.74c4.079-1.297,8.443,0.96,9.739,5.042l7.339,23.087c1.298,4.082-0.96,8.442-5.041,9.739
	C368.105,230.185,367.313,230.303,366.534,230.303z"/>
<g>
	<path style="fill:#0DAACE;" d="M306.864,246.098c-1.116,0-2.249-0.242-3.323-0.753c-3.868-1.838-5.513-6.464-3.675-10.333
		l10.4-21.88c1.838-3.868,6.465-5.513,10.334-3.675s5.513,6.464,3.675,10.333l-10.4,21.88
		C312.546,244.463,309.765,246.098,306.864,246.098z"/>
	<path style="fill:#0DAACE;" d="M314.797,183.569c-1.448,0-2.911-0.404-4.216-1.251c-3.592-2.332-4.614-7.134-2.283-10.727
		l9.563-14.734c2.333-3.593,7.137-4.613,10.728-2.283c3.592,2.332,4.614,7.134,2.283,10.728l-9.563,14.733
		C319.823,182.323,317.335,183.569,314.797,183.569z"/>
</g>
<rect x="248.249" y="328.579" style="fill:#ADD1FF;" width="15.51" height="183.418"/>
<g>
	<path style="fill:#FDDC65;" d="M158.812,74.387c-4.283,0-7.755-3.472-7.755-7.755v-17.06c0-4.283,3.472-7.755,7.755-7.755
		s7.755,3.472,7.755,7.755v17.06C166.567,70.915,163.095,74.387,158.812,74.387z"/>
	<path style="fill:#FDDC65;" d="M158.812,128.669c-4.283,0-7.755-3.472-7.755-7.755v-17.061c0-4.283,3.472-7.755,7.755-7.755
		s7.755,3.472,7.755,7.755v17.06C166.567,125.197,163.095,128.669,158.812,128.669z"/>
	<path style="fill:#FDDC65;" d="M194.484,92.998h-17.061c-4.283,0-7.755-3.472-7.755-7.755s3.472-7.755,7.755-7.755h17.061
		c4.283,0,7.755,3.472,7.755,7.755S198.766,92.998,194.484,92.998z"/>
	<path style="fill:#FDDC65;" d="M140.202,92.998h-17.06c-4.283,0-7.755-3.472-7.755-7.755s3.472-7.755,7.755-7.755h17.06
		c4.283,0,7.755,3.472,7.755,7.755S144.484,92.998,140.202,92.998z"/>
	<path style="fill:#FDDC65;" d="M365.094,32.569c-4.283,0-7.755-3.472-7.755-7.755V7.755c0-4.283,3.472-7.755,7.755-7.755
		c4.283,0,7.755,3.472,7.755,7.755v17.06C372.849,29.097,369.377,32.569,365.094,32.569z"/>
	<path style="fill:#FDDC65;" d="M365.094,86.852c-4.283,0-7.755-3.472-7.755-7.755V62.036c0-4.283,3.472-7.755,7.755-7.755
		c4.283,0,7.755,3.472,7.755,7.755v17.06C372.849,83.379,369.377,86.852,365.094,86.852z"/>
	<path style="fill:#FDDC65;" d="M400.765,51.18h-17.06c-4.283,0-7.755-3.472-7.755-7.755s3.472-7.755,7.755-7.755h17.06
		c4.283,0,7.755,3.472,7.755,7.755S405.047,51.18,400.765,51.18z"/>
	<path style="fill:#FDDC65;" d="M346.483,51.18h-17.061c-4.283,0-7.755-3.472-7.755-7.755s3.472-7.755,7.755-7.755h17.061
		c4.283,0,7.755,3.472,7.755,7.755S350.766,51.18,346.483,51.18z"/>
</g>
<g>
</g>
<g>
</g>
<g>
</g>
<g>
</g>
<g>
</g>
<g>
</g>
<g>
</g>
<g>
</g>
<g>
</g>
<g>
</g>
<g>
</g>
<g>
</g>
<g>
</g>
<g>
</g>
<g>
</g>
</svg>
