<svg id="Layer_3" enable-background="new 0 0 128 128" height="512" viewBox="0 0 128 128" width="512" xmlns="http://www.w3.org/2000/svg" xmlns:xlink="http://www.w3.org/1999/xlink"><linearGradient id="lg1"><stop offset="0" stop-color="#58595b"/><stop offset="1" stop-color="#414042"/></linearGradient><linearGradient id="SVGID_1_" gradientUnits="userSpaceOnUse" x1="64" x2="64" xlink:href="#lg1" y1="2.191" y2="35.286"/><linearGradient id="lg2"><stop offset="0" stop-color="#f9ddd1"/><stop offset=".5137" stop-color="#f8dbce"/><stop offset=".8222" stop-color="#f6d3c6"/><stop offset="1" stop-color="#f4cabd"/></linearGradient><linearGradient id="SVGID_2_" gradientUnits="userSpaceOnUse" x1="30" x2="42" xlink:href="#lg2" y1="58" y2="58"/><linearGradient id="SVGID_3_" gradientUnits="userSpaceOnUse" x1="98" x2="86" xlink:href="#lg2" y1="58" y2="58"/><linearGradient id="lg3"><stop offset="0" stop-color="#f7d0bf"/><stop offset="1" stop-color="#f1beae"/></linearGradient><linearGradient id="SVGID_4_" gradientTransform="matrix(.964 -.266 .266 .964 131.92 -477.013)" gradientUnits="userSpaceOnUse" x1="-236.439" x2="-229.561" xlink:href="#lg3" y1="490.684" y2="490.684"/><linearGradient id="SVGID_5_" gradientTransform="matrix(-.964 -.266 -.266 .964 -3413.92 -477.013)" gradientUnits="userSpaceOnUse" x1="-3523.31" x2="-3516.432" xlink:href="#lg3" y1="-417.379" y2="-417.379"/><linearGradient id="SVGID_6_" gradientUnits="userSpaceOnUse" x1="54" x2="74" xlink:href="#lg2" y1="81" y2="101"/><linearGradient id="SVGID_7_" gradientUnits="userSpaceOnUse" x1="57.09" x2="76.814" y1="77.575" y2="97.299"><stop offset="0" stop-color="#eeae9a"/><stop offset=".3161" stop-color="#efb4a0"/><stop offset=".7381" stop-color="#f4c3b1"/><stop offset="1" stop-color="#f7d0bf"/></linearGradient><linearGradient id="lg4"><stop offset="0" stop-color="#f1f2f2"/><stop offset="1" stop-color="#e6e7e8"/></linearGradient><linearGradient id="SVGID_8_" gradientUnits="userSpaceOnUse" x1="64" x2="64" xlink:href="#lg4" y1="98" y2="126"/><linearGradient id="SVGID_9_" gradientUnits="userSpaceOnUse" x1="41.374" x2="86.626" xlink:href="#lg2" y1="31.901" y2="77.152"/><linearGradient id="SVGID_10_" gradientUnits="userSpaceOnUse" x1="64" x2="64" y1="56" y2="70"><stop offset="0" stop-color="#f7d0bf"/><stop offset="1" stop-color="#eeae9a"/></linearGradient><linearGradient id="SVGID_11_" gradientUnits="userSpaceOnUse" x1="64" x2="64" y1="21.099" y2="51.376"><stop offset="0" stop-color="#9d766a"/><stop offset="1" stop-color="#53371a"/></linearGradient><linearGradient id="lg5"><stop offset="0" stop-color="#ffd486"/><stop offset="1" stop-color="#ffb76a"/></linearGradient><linearGradient id="SVGID_12_" gradientUnits="userSpaceOnUse" x1="64" x2="64" xlink:href="#lg5" y1="111.12" y2="129.339"/><linearGradient id="SVGID_13_" gradientUnits="userSpaceOnUse" x1="64" x2="64" xlink:href="#lg5" y1="110.414" y2="101.329"/><linearGradient id="SVGID_14_" gradientUnits="userSpaceOnUse" x1="54" x2="54" xlink:href="#lg4" y1="89.735" y2="116.211"/><linearGradient id="SVGID_15_" gradientUnits="userSpaceOnUse" x1="74" x2="74" xlink:href="#lg4" y1="84.572" y2="112.931"/><linearGradient id="lg6"><stop offset="0" stop-color="#6c6f73"/><stop offset="1" stop-color="#56585b"/></linearGradient><linearGradient id="SVGID_16_" gradientUnits="userSpaceOnUse" x1="64" x2="64" xlink:href="#lg6" y1="36" y2="50"/><linearGradient id="SVGID_17_" gradientUnits="userSpaceOnUse" x1="64" x2="64" xlink:href="#lg5" y1="30" y2="36"/><linearGradient id="SVGID_18_" gradientUnits="userSpaceOnUse" x1="64" x2="64" xlink:href="#lg1" y1="5.471" y2="34.578"/><linearGradient id="SVGID_19_" gradientUnits="userSpaceOnUse" x1="64" x2="64" xlink:href="#lg1" y1="2.188" y2="34.746"/><linearGradient id="SVGID_20_" gradientUnits="userSpaceOnUse" x1="42" x2="42" xlink:href="#lg1" y1="32" y2="34"/><linearGradient id="SVGID_21_" gradientUnits="userSpaceOnUse" x1="86" x2="86" xlink:href="#lg1" y1="32" y2="34"/><linearGradient id="SVGID_22_" gradientUnits="userSpaceOnUse" x1="34" x2="34" xlink:href="#lg1" y1="98.569" y2="126"/><linearGradient id="SVGID_23_" gradientUnits="userSpaceOnUse" x1="43" x2="43" xlink:href="#lg6" y1="98.569" y2="126"/><linearGradient id="SVGID_24_" gradientTransform="matrix(-1 0 0 1 -626 0)" gradientUnits="userSpaceOnUse" x1="-720" x2="-720" xlink:href="#lg1" y1="98.569" y2="126"/><linearGradient id="SVGID_25_" gradientTransform="matrix(-1 0 0 1 -626 0)" gradientUnits="userSpaceOnUse" x1="-711" x2="-711" xlink:href="#lg6" y1="98.569" y2="126"/><g fill="#414042"><path d="m6 72h6v6h-6z"/><path d="m12 78h6v6h-6z"/><path d="m18 72h6v6h-6z"/><path d="m24 78h6v6h-6z"/><path d="m30 72h6v6h-6z"/><path d="m36 78h6v6h-6z"/><path d="m86 78h6v6h-6z"/><path d="m92 72h6v6h-6z"/><path d="m98 78h6v6h-6z"/><path d="m104 72h6v6h-6z"/><path d="m110 78h6v6h-6z"/><path d="m116 72h6v6h-6z"/><path d="m6 50h6v6h-6z"/><path d="m12 56h6v6h-6z"/><path d="m18 50h6v6h-6z"/><path d="m24 56h6v6h-6z"/><path d="m34.834 50h-4.834v6z"/><path d="m98 50h-4.852l4.852 6z"/><path d="m98 56h6v6h-6z"/><path d="m104 50h6v6h-6z"/><path d="m110 56h6v6h-6z"/><path d="m116 50h6v6h-6z"/></g><path d="m91 9s-12.737-7-27-7-27 7-27 7-12 6-12 15c0 6 12 12 12 12h54s12-6 12-12c0-9-12-15-12-15z" fill="url(#SVGID_1_)"/><path d="m41.546 56.443c1.262 4.333-.199 8.543-3.262 9.402-3.063.86-6.569-1.956-7.831-6.289s.199-8.543 3.262-9.402c3.064-.859 6.57 1.956 7.831 6.289z" fill="url(#SVGID_2_)"/><path d="m86.454 56.443c-1.262 4.333.199 8.543 3.262 9.402 3.063.86 6.569-1.956 7.831-6.289s-.199-8.543-3.262-9.402c-3.064-.859-6.57 1.956-7.831 6.289z" fill="url(#SVGID_3_)"/><path d="m41.321 57.105c.609 2.153-.383 4.298-2.217 4.793-1.834.494-3.815-.85-4.424-3.002-.609-2.153.383-4.298 2.217-4.793s3.814.849 4.424 3.002z" fill="url(#SVGID_4_)"/><path d="m86.679 57.105c-.609 2.153.383 4.298 2.217 4.793 1.834.494 3.815-.85 4.424-3.002.609-2.153-.383-4.298-2.217-4.793s-3.814.849-4.424 3.002z" fill="url(#SVGID_5_)"/><path d="m76 99h-24l2-18h20z" fill="url(#SVGID_6_)"/><path d="m74 81h-20l-.581 6.39 15.61 11.61h6.971z" fill="url(#SVGID_7_)"/><path d="m78 98h-28c-29.269 0-34 28-34 28h96s-4.731-28-34-28z" fill="url(#SVGID_8_)"/><path d="m64 90c-14.3 0-26-13.7-26-28v-16c0-14.3 11.7-26 26-26 14.3 0 26 11.7 26 26v16c0 14.3-11.7 28-26 28z" fill="url(#SVGID_9_)"/><path d="m54.263 58h-.527c-.955 0-1.736-.782-1.736-1.737v-2.527c0-.955.781-1.736 1.737-1.736h.527c.955 0 1.736.781 1.736 1.737v2.527c0 .954-.781 1.736-1.737 1.736z" fill="#51251f"/><path d="m74.263 58h-.527c-.955 0-1.736-.782-1.736-1.737v-2.527c0-.955.781-1.736 1.737-1.736h.527c.955 0 1.736.781 1.736 1.737v2.527c0 .954-.781 1.736-1.737 1.736z" fill="#51251f"/><path d="m64.158 70h-.316c-1.563 0-2.842-1.279-2.842-2.842v-8.316c0-1.563 1.279-2.842 2.842-2.842h.316c1.563 0 2.842 1.279 2.842 2.842v8.316c0 1.563-1.279 2.842-2.842 2.842z" fill="url(#SVGID_10_)"/><path d="m51 49c-.545 0-.99-.437-1-.982-.01-.552.431-1.008.982-1.018l6-.105c.594-.039 1.007.431 1.018.982.01.552-.431 1.008-.982 1.018l-6 .105c-.006 0-.012 0-.018 0z" fill="#7a5954"/><path d="m77 49c-.006 0-.012 0-.018 0l-6-.105c-.552-.01-.992-.466-.982-1.018s.436-1.014 1.018-.982l6 .105c.552.01.992.466.982 1.018-.01.545-.455.982-1 .982z" fill="#7a5954"/><path d="m64 20c-14.3 0-26 11.7-26 26v5.127c18.155-2.218 33.317-8.702 41.232-14.009-.506 5.598 2.397 12.295 10.768 14.309v-5.427c0-14.3-11.7-26-26-26z" fill="url(#SVGID_11_)"/><path d="m67 111h-6l-1 15h8z" fill="url(#SVGID_12_)"/><path d="m66 101c-.218 0-4 0-4 0s-4.012 5.976-4 6l3 4h6l3-4c0-.079-4-6-4-6z" fill="url(#SVGID_13_)"/><path d="m52 91 12 7-10 15-10-15z" fill="url(#SVGID_14_)"/><path d="m76 91-12 7 10 15 10-15z" fill="url(#SVGID_15_)"/><path d="m91 36v3.843c0 5.586-4.435 10.157-9.855 10.157h-34.29c-5.42 0-9.855-4.571-9.855-10.157v-3.843z" fill="url(#SVGID_16_)"/><path d="m37 30h54v6h-54z" fill="url(#SVGID_17_)"/><path d="m37 24h54v6h-54z" fill="url(#SVGID_18_)"/><path d="m91 9s-12.737-7-27-7-27 7-27 7-12 6-12 15h78c0-9-12-15-12-15z" fill="url(#SVGID_19_)"/><circle cx="42" cy="33" fill="url(#SVGID_20_)" r="1"/><circle cx="86" cy="33" fill="url(#SVGID_21_)" r="1"/><path d="m64 77c-2.405 0-8-.245-8-2.52 0-.553.447-1 1-1 .437 0 .81.281.945.673.531.326 2.643.847 6.055.847s5.524-.521 6.055-.847c.135-.391.507-.673.945-.673.553 0 1 .447 1 1 0 2.275-5.595 2.52-8 2.52z" fill="#f09890"/><path d="m43.183 98.568c-23.194 3.929-27.183 27.432-27.183 27.432h36z" fill="url(#SVGID_22_)"/><path d="m43.183 98.568c-2.396.406-4.576 1.03-6.578 1.806l-2.605 15.626 4 5-4 2 2 3h16z" fill="url(#SVGID_23_)"/><path d="m84.817 98.568c23.194 3.929 27.183 27.432 27.183 27.432h-36z" fill="url(#SVGID_24_)"/><path d="m84.817 98.568c2.396.406 4.576 1.03 6.578 1.806l2.605 15.626-4 5 4 2-2 3h-16z" fill="url(#SVGID_25_)"/></svg>