<svg height="512pt" viewBox="0 -53 512 512" width="512pt" xmlns="http://www.w3.org/2000/svg"><path d="m256 173.21875c-4.144531 0-7.5-3.359375-7.5-7.5v-33.636719c0-4.140625 3.355469-7.5 7.5-7.5s7.5 3.359375 7.5 7.5v33.636719c0 4.140625-3.355469 7.5-7.5 7.5zm0 0" fill="#c2f4ff"/><path d="m65.519531 107.527344c-4.140625 0-7.5-3.359375-7.5-7.5v-26.367188c0-4.140625 3.359375-7.5 7.5-7.5 4.144531 0 7.5 3.359375 7.5 7.5v26.367188c0 4.140625-3.355469 7.5-7.5 7.5zm0 0" fill="#aabfd5"/><path d="m22.136719 109.816406v262.480469c0 7.683594 6.226562 13.910156 13.910156 13.910156h58.953125c7.679688 0 13.910156-6.226562 13.910156-13.910156v-262.480469c0-7.683594-6.230468-13.910156-13.910156-13.910156h-58.953125c-7.683594 0-13.910156 6.226562-13.910156 13.910156zm0 0" fill="#f0f2dc"/><path d="m95 95.90625h-23.742188c7.679688 0 13.90625 6.226562 13.90625 13.910156v262.484375c0 7.679688-6.226562 13.90625-13.90625 13.90625h23.742188c7.679688 0 13.90625-6.226562 13.90625-13.90625v-262.484375c0-7.683594-6.226562-13.910156-13.90625-13.910156zm0 0" fill="#ccc5a9"/><path d="m256 161.597656c-112.683594 0-204.03125 91.347656-204.03125 204.03125h408.0625c0-112.683594-91.347656-204.03125-204.03125-204.03125zm0 0" fill="#c2f4ff"/><path d="m256 161.597656c-2.707031 0-5.398438.054688-8.078125.160156 101.695313 4.242188 182.921875 93.894532 182.921875 203.871094h29.1875c0-112.683594-91.347656-204.03125-204.03125-204.03125zm0 0" fill="#87d1ea"/><path d="m0 369.476562v6.175782c0 17.195312 13.9375 31.132812 31.132812 31.132812h449.734376c17.195312 0 31.132812-13.9375 31.132812-31.132812v-6.175782c0-2.125-1.726562-3.847656-3.851562-3.847656h-504.296876c-2.128906 0-3.851562 1.722656-3.851562 3.847656zm0 0" fill="#aabfd5"/><path d="m508.148438 365.628906h-24.722657c2.125 0 3.851563 1.722656 3.851563 3.851563v6.175781c0 17.191406-13.941406 31.132812-31.136719 31.132812h24.726563c17.195312 0 31.132812-13.941406 31.132812-31.132812v-6.175781c0-2.128907-1.722656-3.851563-3.851562-3.851563zm0 0" fill="#7d8eb0"/><path d="m272.84375 97.570312h-33.6875c-10.097656 0-18.285156 8.1875-18.285156 18.285157 0 10.101562 8.1875 18.289062 18.285156 18.289062h33.6875c10.097656 0 18.285156-8.1875 18.285156-18.289062 0-10.097657-8.1875-18.285157-18.285156-18.285157zm0 0" fill="#aabfd5"/><path d="m272.84375 97.570312h-25.671875c10.101563 0 18.289063 8.1875 18.289063 18.285157 0 10.101562-8.1875 18.289062-18.289063 18.289062h25.671875c10.097656 0 18.285156-8.1875 18.285156-18.289062 0-10.097657-8.1875-18.285157-18.285156-18.285157zm0 0" fill="#7d8eb0"/><path d="m389.140625 356.574219c0 21.367187-69.980469 17.628906-71.050781 50.214843h142.097656c-1.066406-32.585937-71.046875-28.847656-71.046875-50.214843zm0 0" fill="#87d1ea"/><path d="m389.140625 356.574219c0 21.367187 41.699219 17.628906 42.332031 50.214843h28.714844c-1.066406-32.585937-71.046875-28.847656-71.046875-50.214843zm0 0" fill="#5fa6ce"/><path d="m389.140625 384.996094c-4.144531 0-7.5-3.359375-7.5-7.5v-100.003906c0-4.140626 3.355469-7.5 7.5-7.5 4.140625 0 7.5 3.359374 7.5 7.5v100c0 4.144531-3.359375 7.503906-7.5 7.503906zm0 0" fill="#87d1ea"/><path d="m397.027344 280.582031h-15.773438c-37.480468 0-66.714844-32.449219-62.8125-69.726562l13.53125-129.300781c.25-2.40625 2.28125-4.234376 4.699219-4.234376h104.933594c2.417969 0 4.449219 1.828126 4.699219 4.234376l13.53125 129.300781c3.902343 37.277343-25.328126 69.726562-62.808594 69.726562zm0 0" fill="#87d1ea"/><path d="m459.839844 210.855469-13.53125-129.300781c-.253906-2.40625-2.28125-4.234376-4.703125-4.234376h-22.421875c1.980468 0 3.644531 1.828126 3.847656 4.234376l11.078125 129.300781c3.191406 37.277343-20.734375 69.726562-51.410156 69.726562h14.328125c37.480468 0 66.710937-32.449219 62.8125-69.726562zm0 0" fill="#5fa6ce"/><path d="m318.441406 210.855469c-3.902344 37.277343 25.332032 69.726562 62.8125 69.726562h15.773438c37.480468 0 66.710937-32.449219 62.8125-69.726562l-.9375-8.941407h-139.527344zm0 0" fill="#ea6789"/><path d="m459.839844 210.855469-.9375-8.941407h-25.5625l.765625 8.941407c3.195312 37.277343-20.730469 69.726562-51.40625 69.726562h14.328125c37.480468 0 66.710937-32.449219 62.8125-69.726562zm0 0" fill="#c7416a"/><path d="m90.558594 47.777344c0 13.828125-11.207032 25.035156-25.035156 25.035156-13.828126 0-25.039063-11.207031-25.039063-25.035156 0-27.226563 25.039063-47.777344 25.039063-47.777344s25.035156 20.550781 25.035156 47.777344zm0 0" fill="#f27755"/><path d="m56.488281 196.023438c-10.382812 0-18.832031-8.449219-18.832031-18.832032v-25.410156c0-4.144531 3.355469-7.5 7.5-7.5s7.5 3.355469 7.5 7.5v25.410156c0 2.113282 1.71875 3.832032 3.832031 3.832032s3.832031-1.71875 3.832031-3.832032v-13.761718c0-10.558594 8.589844-19.148438 19.148438-19.148438h7.582031c4.140625 0 7.5 3.355469 7.5 7.5 0 4.140625-3.359375 7.5-7.5 7.5h-7.582031c-2.285156 0-4.148438 1.859375-4.148438 4.148438v13.761718c0 10.382813-8.449218 18.832032-18.832031 18.832032zm0 0" fill="#ccc5a9"/></svg>