<?xml version="1.0" encoding="iso-8859-1"?>
<!-- Generator: Adobe Illustrator 19.0.0, SVG Export Plug-In . SVG Version: 6.00 Build 0)  -->
<svg version="1.1" id="Capa_1" xmlns="http://www.w3.org/2000/svg" xmlns:xlink="http://www.w3.org/1999/xlink" x="0px" y="0px"
	 viewBox="0 0 512 512" style="enable-background:new 0 0 512 512;" xml:space="preserve">
<path style="fill:#FFD5B3;" d="M332.197,76.519h-67.166c-11.061,0-20.773,5.944-26.197,14.843h-20.208
	c-16.992,0-30.77,13.954-30.77,31.169v50.777v45.726c0,42.43,33.954,76.821,75.834,76.821c22.34,0,42.419-9.789,56.298-25.359
	c-0.194-2.506-0.295-5.038-0.295-7.593v-44.622c0-21.46,6.962-41.305,18.72-57.359c-0.088,0.121-0.171,0.246-0.259,0.368
	c0.451-0.621,0.903-1.241,1.368-1.85v-75.5C339.523,79.842,336.244,76.519,332.197,76.519z"/>
<path style="fill:#92DEEE;" d="M343.593,498.377V391.333c0-15.059,4.665-29.037,12.612-40.59v-11.937
	c-13.575-10.82-24.185-25.272-30.39-41.891h-16.568l-20.519,31.679c-1.274,1.966-3.134,3.093-5.102,3.093
	c-1.969,0-3.829-1.127-5.103-3.092l-13.087-20.204c-0.521-0.805-1.158-1.267-1.746-1.267s-1.224,0.462-1.746,1.267l-13.087,20.203
	c-1.273,1.966-3.133,3.093-5.102,3.093c-1.969,0-3.828-1.127-5.101-3.093l-20.521-31.679h-36.655
	c-5.666,0-10.302,4.641-10.302,10.312v8.536h10.794c2.288,0,4.151,1.864,4.151,4.156v70.736c0,0.553,0.448,1,1,1h24.22
	c2.288,0,4.151,1.864,4.151,4.155v64.441c0,0.347,0.18,0.669,0.475,0.85c4.611,2.85,7.364,7.771,7.364,13.167
	c0,2.181-0.46,4.308-1.368,6.321c-0.059,0.132-0.082,0.272-0.082,0.411h22.383c2.833,0,5.151,2.32,5.151,5.156v12.156
	c0,2.835-2.318,5.155-5.151,5.155h104.421C345.873,503.47,343.593,501.19,343.593,498.377z"/>
<g style="opacity:0.1;">
	<path d="M181.968,315.764c2.288,0,4.151,1.864,4.151,4.156v70.736c0,0.553,0.448,1,1,1h16.342v-84.429
		c0-5.671,4.636-10.312,10.302-10.312h-32.286c-5.666,0-10.302,4.641-10.302,10.312v8.536h10.793V315.764z"/>
</g>
<path style="fill:#046699;" d="M265.436,308.392c-0.521-0.805-1.158-1.267-1.746-1.267s-1.224,0.462-1.746,1.267l-5.753,8.882
	V503.47h15V317.275L265.436,308.392z"/>
<path style="fill:#0481BF;" d="M310.484,278.618h-0.554c-13.099,10.421-29.385,16.236-46.239,16.236
	c-17.424,0-33.462-6.081-46.194-16.236h-0.598c-2.783,0-4.997,1.137-6.075,3.117c-1.078,1.983-0.828,4.459,0.686,6.796
	l26.305,40.607c1.46,2.255,3.626,3.549,5.94,3.549s4.48-1.293,5.941-3.549l13.087-20.203c0.385-0.595,0.753-0.81,0.906-0.81
	s0.522,0.216,0.907,0.81l13.088,20.204c1.462,2.255,3.627,3.548,5.941,3.548s4.479-1.293,5.942-3.549l26.301-40.605
	c1.515-2.337,1.766-4.814,0.688-6.796C315.48,279.756,313.267,278.618,310.484,278.618z"/>
<path style="fill:#FFB98A;" d="M188.856,219.033v-33.338h-14.471c-8.499,0-15.453,6.96-15.453,15.467v15.672
	c0,8.507,6.954,15.468,15.453,15.468h15.642C189.272,227.99,188.856,223.563,188.856,219.033z"/>
<path style="fill:#0481BF;" d="M332.197,76.519h-67.166c-11.061,0-20.773,5.944-26.197,14.843h-20.208
	c-16.992,0-30.77,13.954-30.77,31.169v50.777c0-42.428,33.954-56.016,75.834-56.016c37.493,0,68.609,10.907,74.724,43.629
	c-0.088,0.121-0.171,0.246-0.259,0.368c0.451-0.621,0.903-1.241,1.368-1.85V83.94C339.523,79.842,336.244,76.519,332.197,76.519z"/>
<path style="opacity:0.1;fill:#15004D;enable-background:new    ;" d="M209.135,130.02v-7.488c0-17.215,13.779-31.169,30.77-31.169
	h-21.279c-16.992,0-30.77,13.954-30.77,31.169v50.777C187.856,152.587,195.97,138.759,209.135,130.02z"/>
<path style="fill:#FFD5B3;" d="M319.694,262.903v-44.622c0-21.46,6.962-41.305,18.72-57.359
	c-6.114-32.722-37.231-43.629-74.724-43.629c-41.88,0-75.834,13.588-75.834,56.016v45.726c0,42.43,33.954,76.821,75.834,76.821
	c22.34,0,42.419-9.789,56.298-25.359C319.794,267.99,319.694,265.458,319.694,262.903z"/>
<g style="opacity:0.1;">
	<path d="M209.411,219.033v-45.726c0-38.72,28.283-53.413,65.057-55.686c-3.522-0.218-7.117-0.329-10.778-0.329
		c-41.88,0-75.834,13.588-75.834,56.016v45.726c0,42.43,33.954,76.821,75.834,76.821c3.661,0,7.256-0.278,10.778-0.785
		C237.694,289.768,209.411,257.755,209.411,219.033z"/>
</g>
<g>
	<path style="fill:#A75436;" d="M260.999,221.085h-5.813c-4.142,0-7.5-3.358-7.5-7.5c0-4.143,3.358-7.5,7.5-7.5h2.566v-10.179
		c0-4.143,3.358-7.5,7.5-7.5s7.5,3.357,7.5,7.5v13.373C272.751,215.788,267.479,221.085,260.999,221.085z"/>
	<path style="fill:#A75436;" d="M298.954,205.281c-4.142,0-7.5-3.357-7.5-7.5v-10.047c0-4.143,3.358-7.5,7.5-7.5s7.5,3.357,7.5,7.5
		v10.047C306.454,201.923,303.096,205.281,298.954,205.281z"/>
	<path style="fill:#A75436;" d="M228.428,205.281c-4.142,0-7.5-3.357-7.5-7.5v-10.047c0-4.143,3.358-7.5,7.5-7.5s7.5,3.357,7.5,7.5
		v10.047C235.928,201.923,232.57,205.281,228.428,205.281z"/>
	<path style="fill:#A75436;" d="M262.732,266.875c-14.303,0-26.992-8.611-32.325-21.938c-1.539-3.846,0.331-8.211,4.176-9.75
		c3.847-1.542,8.21,0.331,9.749,4.176c3.042,7.601,10.264,12.512,18.399,12.512c8.138,0,15.362-4.911,18.403-12.511
		c1.538-3.846,5.902-5.719,9.75-4.177c3.846,1.539,5.715,5.903,4.177,9.749C289.728,258.264,277.039,266.875,262.732,266.875z"/>
</g>
<path style="fill:#FF6A76;" d="M415.345,120.64c-53.294,0-96.651,43.803-96.651,97.641v44.622c0,34.069,17.364,64.112,43.618,81.587
	c6.665-7.557,14.986-13.748,24.579-17.982c9.01,4.078,18.581,6.145,28.455,6.145c9.875,0,19.447-2.067,28.457-6.145
	c9.593,4.234,17.914,10.426,24.579,17.981C494.635,327.015,512,296.971,512,262.903v-44.622
	C512,164.442,468.64,120.64,415.345,120.64z"/>
<path style="opacity:0.1;fill:#15004D;enable-background:new    ;" d="M362.312,344.49c3.266-3.703,6.931-7.076,10.948-10.054
	c-19.023-17.842-30.952-43.302-30.952-71.533v-44.622c0-49.79,37.085-90.992,84.815-96.907c-3.861-0.479-7.79-0.733-11.777-0.733
	c-53.294,0-96.651,43.803-96.651,97.641v44.622C318.694,296.973,336.058,327.016,362.312,344.49z"/>
<path style="fill:#FCDB80;" d="M485.583,418.125c-5.143,0-9.327-4.19-9.327-9.34c0-3.261,1.667-6.234,4.461-7.953
	c0.296-0.182,0.476-0.505,0.476-0.852c0-0.348-0.181-0.67-0.477-0.853c-2.793-1.715-4.46-4.688-4.46-7.954
	c0-3.263,1.667-6.235,4.461-7.953c0.296-0.182,0.476-0.504,0.476-0.852s-0.18-0.67-0.476-0.852
	c-2.793-1.718-4.461-4.691-4.461-7.953c0-3.901,2.404-7.247,5.805-8.642c-6.858-17.276-20.227-31.281-37.064-38.963
	c-9.011,4.285-19.057,6.693-29.651,6.693s-20.639-2.408-29.649-6.692c-24.806,11.317-42.103,36.352-42.103,65.372v107.044
	c0,2.813,2.279,5.093,5.09,5.093H482.01c2.811,0,5.091-2.28,5.091-5.093v-80.252h-1.518V418.125z"/>
<g style="opacity:0.1;">
	<path d="M388.723,338.223l-2.485-12.51c-25.097,11.198-42.645,36.389-42.645,65.62v107.044c0,2.813,2.279,5.093,5.09,5.093h21.606
		c-2.811,0-5.09-2.28-5.09-5.093V391.333C365.199,370.303,374.283,351.366,388.723,338.223z"/>
</g>
<path style="fill:#FFB98A;" d="M415.345,332.653c-10.341,0-20.155-2.301-28.999-6.395l6.579,33.122
	c0.462,2.338,2.791,4.253,5.173,4.253h34.496c2.379,0,4.709-1.915,5.173-4.253l6.578-33.122
	C435.502,330.353,425.686,332.653,415.345,332.653z"/>
<path style="fill:#FFD5B3;" d="M415.345,332.653c-38.615,0-70.03-31.827-70.03-70.946v-54.434c0-1.66,0.768-3.227,2.08-4.241
	c0.949-0.735,2.104-1.122,3.277-1.122c0.451,0,0.905,0.057,1.349,0.174c7.85,2.041,17.145,3.212,25.5,3.212
	c20.41,0,39.489-7.1,53.724-19.986c1.02-0.923,2.308-1.386,3.595-1.386c1.27,0,2.539,0.449,3.553,1.35
	c10.95,9.707,26.413,16.652,42.42,19.058c2.623,0.395,4.565,2.648,4.565,5.305v52.071
	C485.378,300.826,453.961,332.653,415.345,332.653z"/>
<g style="opacity:0.1;">
	<path d="M366.271,258.512v-53.869c-4.924-0.543-9.817-1.406-14.25-2.559c-0.443-0.117-0.897-0.174-1.349-0.174
		c-1.173,0-2.329,0.387-3.277,1.122c-1.312,1.015-2.08,2.581-2.08,4.241v54.434c0,39.119,31.415,70.946,70.03,70.946
		c7.245,0,14.237-1.12,20.816-3.2C397.611,329.377,366.271,297.582,366.271,258.512z"/>
</g>
<g>
	<path style="fill:#A75436;" d="M420.367,265.975h-2.562c-6.277,0-11.385-5.129-11.385-11.433v-6.148c0-4.143,3.358-7.5,7.5-7.5
		s7.5,3.357,7.5,7.5v2.654c3.644,0.512,6.447,3.643,6.447,7.427C427.867,262.617,424.509,265.975,420.367,265.975z"/>
	<path style="fill:#A75436;" d="M383.129,252.15c-4.142,0-7.5-3.357-7.5-7.5v-9.177c0-4.143,3.358-7.5,7.5-7.5s7.5,3.357,7.5,7.5
		v9.177C390.629,248.794,387.272,252.15,383.129,252.15z"/>
	<path style="fill:#A75436;" d="M447.565,252.15c-4.142,0-7.5-3.357-7.5-7.5v-9.177c0-4.143,3.358-7.5,7.5-7.5s7.5,3.357,7.5,7.5
		v9.177C455.065,248.794,451.707,252.15,447.565,252.15z"/>
	<path style="fill:#A75436;" d="M416.22,307.81c-13.336,0-25.165-8.027-30.136-20.451c-1.539-3.846,0.331-8.211,4.177-9.749
		c3.845-1.543,8.211,0.331,9.75,4.177c2.679,6.696,9.042,11.023,16.209,11.023c7.167,0,13.53-4.327,16.21-11.023
		c1.539-3.846,5.902-5.719,9.75-4.177c3.846,1.539,5.715,5.903,4.177,9.749C441.385,299.783,429.556,307.81,416.22,307.81z"/>
</g>
<path style="fill:#FFB98A;" d="M504.323,408.785c0.006-3.729,0.006-31.489,0.004-35.221c0.001-5.712-4.624-10.338-10.328-10.338
	h-8.417c-5.703,0-10.327,4.626-10.327,10.338c0,3.727,1.979,6.986,4.937,8.805c-2.958,1.818-4.937,5.079-4.937,8.805
	c0,3.729,1.979,6.99,4.937,8.807c-2.958,1.82-4.937,5.075-4.937,8.805c0,5.712,4.624,10.34,10.327,10.34h8.415
	C499.704,419.125,504.323,414.495,504.323,408.785z"/>
<path style="fill:#FF484E;" d="M398.359,87.952c-1.294,0-2.534-0.525-3.448-1.452l-33.645-34.249
	c-4.755-4.839-7.376-11.266-7.376-18.111c0-6.839,2.621-13.269,7.376-18.108c4.756-4.84,11.082-7.502,17.808-7.502
	s13.05,2.662,17.806,7.502l1.478,1.504l1.479-1.504c4.757-4.84,11.079-7.502,17.807-7.502c6.726,0,13.05,2.662,17.806,7.502
	c4.756,4.839,7.378,11.27,7.378,18.108c0,6.846-2.623,13.273-7.378,18.111L401.805,86.5
	C400.893,87.427,399.653,87.952,398.359,87.952z"/>
<g style="opacity:0.1;">
	<path d="M378.756,46.039c-4.755-4.84-7.375-11.266-7.375-18.111c0-6.839,2.62-13.269,7.375-18.108
		c0.434-0.441,0.885-0.858,1.345-1.265c-0.341-0.013-0.683-0.024-1.026-0.024c-6.726,0-13.052,2.662-17.808,7.502
		c-4.755,4.839-7.376,11.27-7.376,18.108c0,6.846,2.621,13.273,7.376,18.111L394.912,86.5c0.914,0.927,2.154,1.452,3.448,1.452
		s2.534-0.525,3.447-1.452l8.349-8.499L378.756,46.039z"/>
</g>
<g>
	<path style="fill:#FF6A76;" d="M100.581,282.782l0.164-0.164v29.814c0,1.292,0.327,2.507,0.901,3.567h13.197
		c0.575-1.06,0.901-2.275,0.901-3.567V264.5c0-3.034-1.828-5.77-4.631-6.93c-2.804-1.159-6.03-0.519-8.174,1.629l-12.97,12.982
		c-2.928,2.93-2.925,7.679,0.005,10.606C92.905,285.714,97.654,285.713,100.581,282.782z"/>
	<path style="fill:#FF6A76;" d="M128.135,316h24.529c5.42-3.854,8.974-10.173,8.974-17.318v-20.429
		c0-11.719-9.528-21.253-21.239-21.253c-11.71,0-21.237,9.534-21.237,21.253v20.429C119.162,305.827,122.715,312.146,128.135,316z
		 M134.162,278.253c0-3.448,2.798-6.253,6.237-6.253c3.44,0,6.239,2.805,6.239,6.253v20.429c0,3.447-2.799,6.251-6.239,6.251
		c-3.439,0-6.237-2.804-6.237-6.251V278.253z"/>
</g>
<path style="fill:#D4E9ED;" d="M100.739,391.656c0.367-3.427,1.84-6.605,4.272-9.08c2.824-2.871,6.579-4.455,10.573-4.455
	c3.994,0,7.748,1.584,10.572,4.455l0.877,0.895l0.878-0.895c2.824-2.871,6.578-4.455,10.572-4.455c3.993,0,7.749,1.584,10.571,4.455
	c2.432,2.476,3.906,5.653,4.273,9.08h33.791V319.92c0-2.836-2.318-5.156-5.151-5.156H67.444c-2.833,0-5.151,2.32-5.151,5.156v71.736
	H100.739z"/>
<path style="opacity:0.1;fill:#15004D;enable-background:new    ;" d="M85,391.656V319.92c0-2.836,2.318-5.156,5.151-5.156H67.444
	c-2.833,0-5.151,2.32-5.151,5.156v71.736H85z"/>
<path style="fill:#FF6A76;" d="M38.552,458.792c5.469,0,10.423,2.817,13.252,7.537c0.181,0.301,0.506,0.485,0.858,0.485
	s0.677-0.185,0.858-0.486c2.829-4.719,7.782-7.536,13.251-7.536s10.423,2.817,13.252,7.536c0.181,0.302,0.506,0.486,0.858,0.486
	c0.352,0,0.677-0.185,0.858-0.486c2.829-4.719,7.782-7.536,13.251-7.536s10.423,2.817,13.252,7.536
	c0.181,0.302,0.506,0.486,0.858,0.486s0.677-0.185,0.858-0.486c2.829-4.719,7.783-7.536,13.252-7.536
	c5.469,0,10.422,2.817,13.251,7.536c0.181,0.302,0.506,0.486,0.858,0.486s0.677-0.185,0.858-0.485
	c2.829-4.72,7.783-7.537,13.252-7.537s10.423,2.817,13.251,7.536c0.181,0.302,0.506,0.486,0.858,0.486s0.677-0.185,0.858-0.486
	c2.829-4.719,7.783-7.536,13.252-7.536s10.422,2.817,13.252,7.537c0.181,0.301,0.506,0.485,0.858,0.485s0.677-0.185,0.858-0.486
	c2.829-4.719,7.782-7.536,13.251-7.536c3.19,0,6.158,0.974,8.623,2.638v-65.618c0-2.835-2.318-5.155-5.151-5.155h-58.145
	c0.152,0.875,0.241,1.766,0.241,2.672c0,4.063-1.557,7.881-4.381,10.753l-19.975,20.333c-0.542,0.551-1.277,0.861-2.047,0.861
	c-0.768,0-1.504-0.311-2.046-0.861l-19.975-20.333c-2.824-2.872-4.379-6.69-4.379-10.753c0-0.906,0.089-1.797,0.241-2.672h-62.8
	c-2.833,0-5.151,2.32-5.151,5.155v64.059C34.669,459.183,36.564,458.792,38.552,458.792z"/>
<g style="opacity:0.1;">
	<path d="M38.552,458.792c5.469,0,10.423,2.817,13.252,7.537c0.181,0.301,0.506,0.485,0.858,0.485s0.677-0.185,0.858-0.486
		c0.18-0.3,0.368-0.592,0.564-0.875V395.81c0-2.835,2.318-5.155,5.151-5.155H38.073c-2.833,0-5.151,2.32-5.151,5.155v64.059
		C34.669,459.183,36.564,458.792,38.552,458.792z"/>
</g>
<path style="fill:#D4E9ED;" d="M52.778,482.532c1.413-2.431,2.235-5.248,2.235-8.263c0-9.101-7.37-16.478-16.461-16.478
	s-16.461,7.377-16.461,16.478c0,3.015,0.822,5.832,2.235,8.263H52.778z"/>
<path style="fill:#FFFFFF;" d="M80.998,482.532c1.413-2.431,2.235-5.248,2.235-8.263c0-9.101-7.37-16.478-16.461-16.478
	s-16.461,7.377-16.461,16.478c0,3.015,0.822,5.832,2.235,8.263H80.998z"/>
<path style="fill:#D4E9ED;" d="M109.217,482.532c1.413-2.431,2.235-5.248,2.235-8.263c0-9.101-7.37-16.478-16.462-16.478
	c-9.091,0-16.46,7.377-16.46,16.478c0,3.015,0.822,5.832,2.235,8.263H109.217z"/>
<path style="fill:#FFFFFF;" d="M137.436,482.532c1.413-2.431,2.235-5.248,2.235-8.263c0-9.101-7.371-16.478-16.461-16.478
	c-9.092,0-16.461,7.377-16.461,16.478c0,3.015,0.822,5.832,2.235,8.263H137.436z"/>
<path style="fill:#D4E9ED;" d="M165.655,482.532c1.413-2.431,2.235-5.248,2.235-8.263c0-9.101-7.369-16.478-16.461-16.478
	c-9.091,0-16.461,7.377-16.461,16.478c0,3.015,0.822,5.832,2.235,8.263H165.655z"/>
<path style="fill:#FFFFFF;" d="M193.874,482.532c1.413-2.431,2.235-5.248,2.235-8.263c0-9.101-7.371-16.478-16.461-16.478
	c-9.092,0-16.462,7.377-16.462,16.478c0,3.015,0.822,5.832,2.235,8.263H193.874z"/>
<path style="fill:#D4E9ED;" d="M222.094,482.532c1.413-2.431,2.235-5.248,2.235-8.263c0-9.101-7.37-16.478-16.462-16.478
	c-9.09,0-16.461,7.377-16.461,16.478c0,3.015,0.823,5.832,2.235,8.263H222.094z"/>
<path style="fill:#D48748;" d="M249.413,498.315c0,2.835-2.318,5.155-5.151,5.155H5.151c-2.833,0-5.151-2.32-5.151-5.155v-12.156
	c0-2.836,2.318-5.156,5.151-5.156h239.111c2.833,0,5.151,2.32,5.151,5.156V498.315z"/>
<g style="opacity:0.1;">
	<path d="M32.342,498.315v-12.156c0-2.836,2.318-5.156,5.151-5.156H5.151c-2.833,0-5.151,2.32-5.151,5.156v12.156
		c0,2.835,2.318,5.155,5.151,5.155h32.342C34.66,503.47,32.342,501.148,32.342,498.315z"/>
</g>
<g>
	<path style="fill:#B9CCD3;" d="M116.167,329.096H62.293v15h53.874c4.142,0,7.5-3.357,7.5-7.5
		C123.667,332.454,120.309,329.096,116.167,329.096z"/>
	<path style="fill:#B9CCD3;" d="M116.167,352H62.293v15h53.874c4.142,0,7.5-3.357,7.5-7.5S120.309,352,116.167,352z"/>
</g>
<g>
	<path style="fill:#FF484E;" d="M86.796,423c4.142,0,7.5-3.357,7.5-7.5s-3.358-7.5-7.5-7.5H32.922v15H86.796z"/>
	<path style="fill:#FF484E;" d="M86.796,445.963c4.142,0,7.5-3.357,7.5-7.5s-3.358-7.5-7.5-7.5H32.922v15H86.796z"/>
	<path style="fill:#FF484E;" d="M127.033,425.275c-0.768,0-1.504-0.311-2.046-0.861l-19.975-20.333
		c-2.824-2.872-4.379-6.69-4.379-10.753c0-4.06,1.556-7.878,4.379-10.752c2.824-2.871,6.579-4.455,10.573-4.455
		c3.994,0,7.748,1.584,10.572,4.455l0.877,0.895l0.878-0.895c2.824-2.871,6.578-4.455,10.572-4.455
		c3.993,0,7.749,1.584,10.571,4.455c2.824,2.874,4.381,6.692,4.381,10.752c0,4.063-1.557,7.881-4.381,10.753l-19.975,20.333
		C128.538,424.965,127.802,425.275,127.033,425.275z"/>
</g>
<g>
	<path style="fill:#FFC12E;" d="M375.79,503.47v-70.116c0-4.143-3.358-7.5-7.5-7.5s-7.5,3.357-7.5,7.5v70.116H375.79z"/>
	<path style="fill:#FFC12E;" d="M466.157,425.853c-4.142,0-7.5,3.357-7.5,7.5v70.116h15v-70.116
		C473.657,429.211,470.299,425.853,466.157,425.853z"/>
</g>
<g>
</g>
<g>
</g>
<g>
</g>
<g>
</g>
<g>
</g>
<g>
</g>
<g>
</g>
<g>
</g>
<g>
</g>
<g>
</g>
<g>
</g>
<g>
</g>
<g>
</g>
<g>
</g>
<g>
</g>
</svg>
