<svg id="Capa_1" enable-background="new 0 0 512 512" height="512" viewBox="0 0 512 512" width="512" xmlns="http://www.w3.org/2000/svg"><path d="m237.666 370.959h36.668v81.948h-36.668z" fill="#ded0cb"/><path d="m259.089 370.959h15.245v81.948h-15.245z" fill="#b8abab"/><path d="m448 393.547h-384c-35.346 0-64-28.654-64-64v-129.158c0-35.346 28.654-64 64-64h384c35.346 0 64 28.654 64 64v129.158c0 35.347-28.654 64-64 64z" fill="#f9c301"/><path d="m448 136.389h-43.149c36.146 0 65.448 29.302 65.448 65.448v126.262c0 36.146-29.302 65.448-65.448 65.448h43.149c35.346 0 64-28.654 64-64v-129.158c0-35.346-28.654-64-64-64z" fill="#e6b700"/><path d="m475.877 259.681-15.015-11.067c-9.726-7.169-15.468-18.532-15.468-30.615v-12.806c0-19.827-16.073-35.9-35.9-35.9h-306.987c-19.827 0-35.9 16.073-35.9 35.9v12.806c0 12.083-5.741 23.446-15.468 30.615l-15.015 11.067c-3.908 2.881-3.908 8.723 0 11.604l15.015 11.067c9.726 7.169 15.468 18.532 15.468 30.615v12.807c0 19.827 16.073 35.9 35.9 35.9h306.986c19.827 0 35.9-16.073 35.9-35.9v-12.807c0-12.083 5.741-23.446 15.467-30.615l15.015-11.067c3.91-2.881 3.91-8.723.002-11.604z" fill="#f2e7e4"/><path d="m460.861 248.614c-9.726-7.169-15.467-18.532-15.467-30.615v-12.807c0-19.827-16.073-35.9-35.9-35.9h-34.905c19.827 0 35.9 16.073 35.9 35.9v12.807c0 12.083 5.741 23.446 15.467 30.615l15.016 11.067c3.908 2.881 3.908 8.723 0 11.604l-15.015 11.067c-9.726 7.169-15.468 18.532-15.468 30.615v12.807c0 19.827-16.073 35.9-35.9 35.9h34.905c19.827 0 35.9-16.073 35.9-35.9v-12.807c0-12.083 5.741-23.446 15.468-30.615l15.015-11.067c3.908-2.881 3.908-8.723 0-11.604z" fill="#ded0cb"/><g fill="#9e9595"><path d="m134.11 274.806c-.928-2.053-1.818-4.122-2.669-6.207-1.28-2.838-2.839-4.918-4.677-6.237 2.119-.799 3.868-2.149 5.247-4.048 1.379-1.898 2.069-4.188 2.069-6.867 0-3.798-1.2-6.846-3.598-9.145-2.399-2.299-5.438-3.449-9.116-3.449h-10.555c-1.799 0-3.229.37-4.287 1.109-1.06.74-1.59 2.129-1.59 4.168v34.424c0 1.879 1.32 2.818 3.958 2.818 2.639 0 3.958-.939 3.958-2.818v-14.633h3.598c3.305.302 5.484 2.061 6.537 5.277 1.423 3.383 2.439 7.664 4.738 10.615.759 1.039 2.219 1.559 4.378 1.559 1.359 0 2.478-.36 3.358-1.08.879-.719.919-1.679.12-2.878-.559-.839-1.049-1.709-1.469-2.608zm-9.775-19.311c-.94 1.06-2.209 1.59-3.808 1.59h-7.676v-10.015c0-.679.339-1.02 1.02-1.02h6.657c3.441.143 5.181 1.942 5.218 5.397-.001 1.64-.472 2.989-1.411 4.048z"/><path d="m156.509 246.05h13.373c1.679 0 2.519-1.2 2.519-3.598 0-2.399-.839-3.598-2.519-3.598h-16.492c-1.799 0-3.229.37-4.287 1.109-1.06.74-1.59 2.129-1.59 4.168v31.425c0 2.039.53 3.428 1.59 4.168 1.059.74 2.489 1.109 4.287 1.109h16.492c1.679 0 2.519-1.2 2.519-3.598 0-2.399-.839-3.598-2.519-3.598h-13.373c-.68 0-1.02-.339-1.02-1.02v-9.895h12.174c1.679 0 2.519-1.199 2.519-3.598s-.839-3.598-2.519-3.598h-12.174v-8.456c0-.68.339-1.02 1.02-1.02z"/><path d="m207.064 260.563c-3.321-2.616-7.019-4.335-11.094-5.158-4.263-.279-6.622-2.098-7.077-5.457 0-4.961 7.154-6.063 10.345-3.778 1.059.76 1.949 1.979 2.669 3.658 1.221 3.095 8.505 2.194 7.496-1.679-1.799-6.676-6.777-10.015-14.933-10.015-3.639 0-6.807 1.07-9.506 3.209-2.698 2.139-4.048 5.028-4.048 8.666 0 2 .389 3.748 1.169 5.247 2.284 4.393 8.212 6.349 12.564 7.526 3.038.793 7.496 2.03 7.496 5.997-.429 4.093-2.728 6.072-6.897 5.937-3.723-.199-6.182-2.078-7.376-5.637-1.108-3.203-8.512-3.309-7.556 1.559.759 3.598 2.549 6.337 5.367 8.216s6.046 2.818 9.685 2.818c4.438 0 7.996-1.179 10.674-3.538 2.678-2.358 4.018-5.597 4.018-9.715.017-3.025-.982-5.644-2.996-7.856z"/><path d="m231.052 246.05h13.373c1.679 0 2.519-1.2 2.519-3.598 0-2.399-.839-3.598-2.519-3.598h-16.492c-1.799 0-3.229.37-4.287 1.109-1.06.74-1.59 2.129-1.59 4.168v31.425c0 2.039.53 3.428 1.59 4.168 1.059.74 2.489 1.109 4.287 1.109h16.492c1.679 0 2.519-1.2 2.519-3.598 0-2.399-.839-3.598-2.519-3.598h-13.373c-.68 0-1.02-.339-1.02-1.02v-9.895h12.174c1.679 0 2.519-1.199 2.519-3.598s-.839-3.598-2.519-3.598h-12.174v-8.456c.001-.68.34-1.02 1.02-1.02z"/><path d="m288.114 274.806c-.928-2.053-1.818-4.122-2.669-6.207-1.28-2.838-2.839-4.918-4.677-6.237 2.119-.799 3.868-2.149 5.247-4.048 1.379-1.898 2.069-4.188 2.069-6.867 0-3.798-1.2-6.846-3.598-9.145-2.399-2.299-5.438-3.449-9.116-3.449h-10.555c-1.799 0-3.229.37-4.287 1.109-1.06.74-1.59 2.129-1.59 4.168v34.424c0 1.879 1.32 2.818 3.958 2.818 2.639 0 3.958-.939 3.958-2.818v-14.633h3.598c7.359 0 7.941 11.331 11.275 15.892 1.775 2.428 5.13 2.068 7.736.48.879-.719.919-1.679.12-2.878-.56-.84-1.049-1.71-1.469-2.609zm-9.775-19.311c-.94 1.06-2.209 1.59-3.808 1.59h-7.676v-10.015c0-.679.339-1.02 1.02-1.02h6.657c4.683 0 6.818 6.05 3.807 9.445z"/><path d="m325.625 238.613c-2.115 0-4.478.326-5.157 2.819l-7.797 28.426-7.736-28.426c-.979-3.585-9.265-3.738-8.036-.06l10.915 37.002c.6 1.96 2.219 2.939 4.857 2.939 2.678 0 4.318-.979 4.918-2.939l10.735-37.002c.278-1.991-.622-2.911-2.699-2.759z"/><path d="m348.294 246.05h13.373c1.679 0 2.519-1.2 2.519-3.598 0-2.399-.839-3.598-2.519-3.598h-16.492c-1.799 0-3.229.37-4.287 1.109-1.06.74-1.59 2.129-1.59 4.168v31.425c0 2.039.53 3.428 1.59 4.168 1.059.74 2.489 1.109 4.287 1.109h16.492c1.679 0 2.519-1.2 2.519-3.598 0-2.399-.839-3.598-2.519-3.598h-13.373c-.68 0-1.02-.339-1.02-1.02v-9.895h12.174c1.679 0 2.519-1.199 2.519-3.598s-.839-3.598-2.519-3.598h-12.174v-8.456c.001-.68.34-1.02 1.02-1.02z"/><path d="m403.167 245.18c-3.131-4.309-7.389-6.418-12.774-6.327h-8.276c-1.799 0-3.229.37-4.287 1.109-1.06.74-1.59 2.129-1.59 4.168v31.365c0 2.079.53 3.489 1.59 4.228 1.059.74 2.489 1.109 4.287 1.109h8.276c5.597 0 9.765-1.979 12.504-5.937 5.338-7.715 5.485-21.647.27-29.715zm-4.708 19.31c-.49 5.622-3.179 8.651-8.066 9.086h-5.218c-.68 0-1.02-.34-1.02-1.02v-25.488c0-.679.339-1.02 1.02-1.02h5.218c8.751.002 9.068 12.655 8.066 18.442z"/></g><path d="m312.286 487.376c6.988 0 11.286-7.732 7.515-13.615-13.462-21.004-37-34.928-63.8-34.928s-50.338 13.924-63.8 34.928c-3.771 5.883.527 13.615 7.515 13.615z" fill="#b8abab"/><path d="m319.8 473.76c-13.462-21.004-37-34.928-63.8-34.928-6.008 0-11.85.705-17.453 2.027 19.392 4.576 35.903 16.605 46.348 32.901 3.771 5.883-.527 13.615-7.515 13.615h34.905c6.989.001 11.286-7.731 7.515-13.615z" fill="#9e9595"/><path d="m368.812 86.882 1.618 6.611c2.623 10.717 10.071 18.271 20.161 22.735.955.637.955 2.04 0 2.677-10.09 4.464-17.538 12.018-20.161 22.735l-1.618 6.611c-.333 1.36-2.267 1.36-2.6 0l-1.618-6.611c-2.623-10.717-10.071-18.271-20.161-22.735-.955-.637-.955-2.04 0-2.677 10.09-4.464 17.538-12.018 20.161-22.735l1.618-6.611c.333-1.36 2.267-1.36 2.6 0z" fill="#fcdd2e"/><path d="m375.309 116.229c-6.394-2.829-11.722-6.904-15.438-12.233-3.717 5.33-9.044 9.404-15.438 12.233-.955.637-.955 2.04 0 2.677 6.394 2.829 11.722 6.904 15.438 12.233 3.717-5.33 9.044-9.404 15.438-12.233.955-.637.955-2.041 0-2.677z" fill="#fbe77b"/><path d="m155.835 25.645 1.618 6.611c2.623 10.717 10.071 18.271 20.161 22.735.955.637.955 2.04 0 2.677-10.09 4.464-17.538 12.018-20.161 22.735l-1.618 6.611c-.333 1.36-2.267 1.36-2.6 0l-1.618-6.611c-2.623-10.717-10.071-18.271-20.161-22.735-.955-.637-.955-2.04 0-2.677 10.09-4.464 17.538-12.018 20.161-22.735l1.618-6.611c.333-1.361 2.267-1.361 2.6 0z" fill="#fcdd2e"/><path d="m162.332 54.991c-6.394-2.829-11.722-6.904-15.438-12.233-3.717 5.33-9.044 9.404-15.438 12.233-.955.637-.955 2.04 0 2.677 6.394 2.829 11.722 6.904 15.438 12.233 3.717-5.33 9.044-9.404 15.438-12.233.955-.636.955-2.04 0-2.677z" fill="#fbe77b"/><path d="m147.035 381.248 1.618 6.611c2.623 10.717 10.071 18.271 20.161 22.735.955.637.955 2.04 0 2.677-10.09 4.464-17.537 12.018-20.161 22.735l-1.618 6.611c-.333 1.36-2.267 1.36-2.6 0l-1.618-6.611c-2.623-10.717-10.071-18.271-20.161-22.735-.955-.637-.955-2.04 0-2.677 10.09-4.464 17.537-12.018 20.161-22.735l1.618-6.611c.332-1.36 2.267-1.36 2.6 0z" fill="#fcdd2e"/><path d="m153.532 410.594c-6.394-2.829-11.722-6.904-15.438-12.233-3.717 5.33-9.044 9.404-15.438 12.233-.955.637-.955 2.04 0 2.677 6.394 2.829 11.722 6.904 15.438 12.233 3.717-5.33 9.044-9.404 15.438-12.233.955-.636.955-2.04 0-2.677z" fill="#fbe77b"/></svg>