<svg id="Capa_1" enable-background="new 0 0 512 512" height="512" viewBox="0 0 512 512" width="512" xmlns="http://www.w3.org/2000/svg"><g><g><path d="m326.063 219.138-50.641-189.138h-38.843l-50.641 189.138-28.98-7.76 56.596-211.378h84.891l56.596 211.378z" fill="#ff9f22"/></g><g><path d="m326.063 219.138-50.641-189.138h-19.422v-30h42.445l56.596 211.378z" fill="#dd7d00"/></g><path d="m372.04 512h-232.08c-16.569 0-30-13.431-30-30v-276.742h292.08v276.742c0 16.569-13.431 30-30 30z" fill="#ffde55"/><path d="m256 205.258h146.04v276.742c0 16.569-13.431 30-30 30h-116.04z" fill="#ff9f22"/><circle cx="256" cy="358.629" fill="#00ddc2" r="55"/><path d="m256 303.629c30.376 0 55 24.624 55 55s-24.624 55-55 55z" fill="#00aa95"/><path d="m241 343.629h30v30h-30z" fill="#beebfa" transform="matrix(-.707 -.707 .707 -.707 183.43 793.237)"/><path d="m256 337.416 21.213 21.213-21.213 21.213z" fill="#b3d8f4"/></g></svg>