<?xml version="1.0" encoding="iso-8859-1"?>
<!-- Generator: Adobe Illustrator 19.0.0, SVG Export Plug-In . SVG Version: 6.00 Build 0)  -->
<svg version="1.1" id="Capa_1" xmlns="http://www.w3.org/2000/svg" xmlns:xlink="http://www.w3.org/1999/xlink" x="0px" y="0px"
	 viewBox="0 0 512 512" style="enable-background:new 0 0 512 512;" xml:space="preserve">
<g>
	<path style="fill:#44454F;" d="M104.922,478.5C96.694,478.5,90,471.806,90,463.578V436.5h49v27.078
		c0,8.228-6.694,14.922-14.922,14.922H104.922z"/>
	<path style="fill:#44454F;" d="M231.922,478.5c-8.228,0-14.922-6.694-14.922-14.922V436.5h49v27.078
		c0,8.228-6.694,14.922-14.922,14.922H231.922z"/>
</g>
<path style="fill:#9BA7AF;" d="M360,279.5v-29h-67.804v-25h75.963c10.389,0,18.841,8.452,18.841,18.841V279.5H360z"/>
<path style="fill:#72818B;" d="M373.402,279.5v-34.268c0-3.718-3.014-6.732-6.732-6.732h-74.474v12H360v29H373.402z"/>
<path style="fill:#9BA7AF;" d="M353,305.5v-26.716c0-5.67,4.613-10.284,10.284-10.284h22.433c5.67,0,10.284,4.613,10.284,10.284
	V305.5H353z"/>
<path style="fill:#72818B;" d="M384.784,268.5h-21.5c-5.67,0-10.284,4.613-10.284,10.284V305.5h21.5v-26.716
	C374.5,273.113,379.113,268.5,384.784,268.5z"/>
<path style="fill:#A35425;" d="M449.963,292.5H337.835l-44.424,0.5v185.5H454.25c17.86,0,32.39-14.53,32.39-32.39V329.177
	C486.639,308.953,470.186,292.5,449.963,292.5z"/>
<path style="fill:#B06328;" d="M417.323,292.5H305.196l-44.424,0.5v185.5H421.61c17.86,0,32.39-14.53,32.39-32.39V329.177
	C454,308.953,437.547,292.5,417.323,292.5z"/>
<path style="fill:#F04D4E;" d="M345.5,423.5c-7.995,0-14.5-6.505-14.5-14.5s6.505-14.5,14.5-14.5S360,401.005,360,409
	S353.495,423.5,345.5,423.5z"/>
<path style="fill:#F6B545;" d="M342.488,353.472c-0.809,0-1.616-0.107-2.398-0.319c-2.345-0.628-4.323-2.145-5.547-4.266
	l-3.333-5.772c-1.224-2.121-1.549-4.59-0.916-6.955c0.634-2.367,2.151-4.345,4.273-5.57l8.369-4.832
	c1.399-0.806,2.979-1.229,4.577-1.229c0.799,0,1.598,0.105,2.373,0.312c2.371,0.635,4.349,2.152,5.573,4.273l3.333,5.772
	c1.224,2.121,1.549,4.59,0.916,6.955c-0.634,2.368-2.151,4.345-4.273,5.57l-8.369,4.832
	C345.675,353.045,344.091,353.472,342.488,353.472z"/>
<rect x="380" y="292.5" style="fill:#933E14;" width="25" height="186"/>
<g>
	<rect x="233.38" y="57.4" style="fill:#9BA7AF;" width="25" height="158.84"/>
	<rect x="102.02" y="57.01" style="fill:#9BA7AF;" width="25" height="159.23"/>
</g>
<g>
	<rect x="233.38" y="57.4" style="fill:#72818B;" width="12.5" height="158.84"/>
	<rect x="102.02" y="57.01" style="fill:#72818B;" width="12.5" height="159.23"/>
</g>
<path style="fill:#44454F;" d="M219.714,65.5c-3.388,0-6.408-2.134-7.54-5.327l0,0c-2.051-5.786-7.547-9.673-13.675-9.673h-36
	c-6.128,0-11.624,3.887-13.675,9.673l0,0c-1.132,3.193-4.152,5.327-7.54,5.327h-34.286c-4.418,0-7.999-3.581-7.999-7.999v-3.929
	C99,38.62,111.12,26.5,126.071,26.5h108.857C249.88,26.5,262,38.62,262,53.571V57.5c0,4.418-3.581,7.999-7.999,7.999L219.714,65.5
	L219.714,65.5z"/>
<path style="fill:#A35425;" d="M325.892,292.5h-20.696l-44.424,0.5v180.5h14.164c28.097,0,50.956-22.859,50.956-50.956
	L325.892,292.5L325.892,292.5z"/>
<path style="fill:#F19920;" d="M129.456,452.5c-16.518,0-29.956-13.438-29.956-29.956V231.456c0-16.518,13.438-29.956,29.956-29.956
	h145.479c16.518,0,29.956,13.438,29.956,29.956v191.088c0,16.518-13.438,29.956-29.956,29.956H129.456z"/>
<path style="fill:#F6B545;" d="M84.76,452.5c-16.518,0-29.956-13.438-29.956-29.956V231.456c0-16.518,13.438-29.956,29.956-29.956
	h145.48c16.518,0,29.956,13.438,29.956,29.956v191.088c0,16.518-13.438,29.956-29.956,29.956H84.76z"/>
<path style="fill:#F19920;" d="M154.26,418c-16.518,0-29.956-13.438-29.956-29.956V201.5H84.76
	c-16.518,0-29.956,13.438-29.956,29.956v191.088c0,16.518,13.438,29.956,29.956,29.956h145.48c16.518,0,29.956-13.438,29.956-29.956
	V418H154.26z"/>
<path style="fill:#E88815;" d="M99.5,399c-6.341,0-11.5-5.159-11.5-11.5v-115c0-6.341,5.159-11.5,11.5-11.5s11.5,5.159,11.5,11.5
	v115C111,393.841,105.841,399,99.5,399z"/>
<g>
	<path style="fill:#F19920;" d="M157.5,399c-6.341,0-11.5-5.159-11.5-11.5v-115c0-6.341,5.159-11.5,11.5-11.5s11.5,5.159,11.5,11.5
		v115C169,393.841,163.841,399,157.5,399z"/>
	<path style="fill:#F19920;" d="M215.5,399c-6.341,0-11.5-5.159-11.5-11.5v-115c0-6.341,5.159-11.5,11.5-11.5s11.5,5.159,11.5,11.5
		v115C227,393.841,221.841,399,215.5,399z"/>
</g>
<path style="fill:#99B4CD;" d="M504.5,485.5H7.5c-4.142,0-7.5-3.358-7.5-7.5s3.358-7.5,7.5-7.5h497c4.142,0,7.5,3.358,7.5,7.5
	S508.642,485.5,504.5,485.5z"/>
<g>
</g>
<g>
</g>
<g>
</g>
<g>
</g>
<g>
</g>
<g>
</g>
<g>
</g>
<g>
</g>
<g>
</g>
<g>
</g>
<g>
</g>
<g>
</g>
<g>
</g>
<g>
</g>
<g>
</g>
</svg>
