<?xml version="1.0" encoding="iso-8859-1"?>
<!-- Generator: Adobe Illustrator 19.0.0, SVG Export Plug-In . SVG Version: 6.00 Build 0)  -->
<svg version="1.1" id="Capa_1" xmlns="http://www.w3.org/2000/svg" xmlns:xlink="http://www.w3.org/1999/xlink" x="0px" y="0px"
	 viewBox="0 0 511.999 511.999" style="enable-background:new 0 0 511.999 511.999;" xml:space="preserve">
<g>
	<rect x="189.73" y="399.24" style="fill:#58565C;" width="132.53" height="52.35"/>
	<rect x="239.43" y="160.351" style="fill:#58565C;" width="33.13" height="51.4"/>
</g>
<path style="fill:#FFD151;" d="M305.699,152.85h-99.4c-4.142,0-7.5,3.357-7.5,7.5s3.358,7.5,7.5,7.5h99.4c4.142,0,7.5-3.357,7.5-7.5
	S309.841,152.85,305.699,152.85z"/>
<g>
	<path style="fill:#B6E3EE;" d="M255.999,3.75c-4.142,0-7.5,3.357-7.5,7.5v33.132c0,4.143,3.358,7.5,7.5,7.5s7.5-3.357,7.5-7.5
		V11.249C263.499,7.108,260.141,3.75,255.999,3.75z"/>
	<path style="fill:#B6E3EE;" d="M138.245,40.792c-2.071-3.588-6.659-4.815-10.245-2.745c-3.587,2.071-4.816,6.658-2.745,10.245
		l16.566,28.693c1.389,2.406,3.91,3.751,6.502,3.751c1.272,0,2.562-0.324,3.743-1.006c3.587-2.071,4.816-6.658,2.745-10.245
		L138.245,40.792z"/>
	<path style="fill:#B6E3EE;" d="M73.236,145.571l-28.693-16.566c-3.588-2.071-8.174-0.843-10.245,2.745
		c-2.071,3.587-0.842,8.174,2.745,10.245l28.693,16.566c1.181,0.682,2.471,1.006,3.743,1.006c2.592,0,5.113-1.345,6.502-3.751
		C78.052,152.229,76.823,147.642,73.236,145.571z"/>
	<path style="fill:#B6E3EE;" d="M40.632,252.249H7.5c-4.142,0-7.5,3.357-7.5,7.5c0,4.143,3.358,7.5,7.5,7.5h33.132
		c4.142,0,7.5-3.357,7.5-7.5C48.132,255.607,44.774,252.249,40.632,252.249z"/>
	<path style="fill:#B6E3EE;" d="M504.499,252.249h-33.132c-4.142,0-7.5,3.357-7.5,7.5c0,4.143,3.358,7.5,7.5,7.5h33.132
		c4.142,0,7.5-3.357,7.5-7.5C511.999,255.607,508.641,252.249,504.499,252.249z"/>
	<path style="fill:#B6E3EE;" d="M477.701,131.749c-2.071-3.588-6.658-4.815-10.245-2.745l-28.693,16.566
		c-3.587,2.071-4.816,6.658-2.745,10.245c1.389,2.406,3.91,3.751,6.502,3.751c1.272,0,2.562-0.324,3.743-1.006l28.693-16.566
		C478.543,139.923,479.772,135.336,477.701,131.749z"/>
	<path style="fill:#B6E3EE;" d="M383.999,38.047c-3.587-2.07-8.174-0.843-10.245,2.745l-16.566,28.693
		c-2.071,3.587-0.842,8.174,2.745,10.245c1.181,0.682,2.471,1.006,3.743,1.006c2.592,0,5.113-1.345,6.502-3.751l16.566-28.693
		C388.815,44.704,387.586,40.118,383.999,38.047z"/>
</g>
<path style="fill:#FFD151;" d="M90.331,384.328v-25.18c0-91.495,74.171-165.666,165.666-165.666s165.666,74.171,165.666,165.666
	v25.18H90.331z"/>
<g>
	<path style="fill:#F79B4A;" d="M255.998,193.482c-3.359,0-6.691,0.112-10,0.309c86.837,5.172,155.666,77.221,155.666,165.357v25.18
		h20v-25.18C421.664,267.654,347.493,193.482,255.998,193.482z"/>
	<path style="fill:#F79B4A;" d="M73.766,402.809v-21.136c0-3.314,2.686-6,6-6h352.467c3.314,0,6,2.686,6,6v21.136
		c0,3.314-2.686,6-6,6H79.766C76.452,408.809,73.766,406.122,73.766,402.809z"/>
</g>
<path style="fill:#F27938;" d="M432.233,375.672h-20c3.314,0,6,2.686,6,6v21.137c0,3.313-2.686,6-6,6h20c3.314,0,6-2.687,6-6
	v-21.137C438.233,378.358,435.546,375.672,432.233,375.672z"/>
<path style="fill:#985335;" d="M73.766,483.748V447.98c0-3.314,2.686-6,6-6h352.467c3.314,0,6,2.686,6,6v35.768H73.766z"/>
<g>
	<path style="fill:#87462A;" d="M432.233,441.981h-20c3.314,0,6,2.686,6,6v35.768h20v-35.768
		C438.233,444.667,435.546,441.981,432.233,441.981z"/>
	<path style="fill:#87462A;" d="M450.114,475.117H60.908c-2.273,0-4.35,1.284-5.367,3.317l-10.566,21.132
		c-1.995,3.989,0.906,8.683,5.367,8.683h405.056c3.903,0,6.768-3.668,5.821-7.455l-5.283-21.132
		C455.267,476.991,452.867,475.117,450.114,475.117z"/>
</g>
<path style="fill:#693621;" d="M461.218,500.794l-5.283-21.132c-0.668-2.671-3.068-4.545-5.821-4.545h-20
	c2.753,0,5.153,1.874,5.821,4.545l5.284,21.132c0.947,3.787-1.917,7.455-5.821,7.455h20
	C459.301,508.249,462.165,504.581,461.218,500.794z"/>
<g>
</g>
<g>
</g>
<g>
</g>
<g>
</g>
<g>
</g>
<g>
</g>
<g>
</g>
<g>
</g>
<g>
</g>
<g>
</g>
<g>
</g>
<g>
</g>
<g>
</g>
<g>
</g>
<g>
</g>
</svg>
