<?xml version="1.0" encoding="iso-8859-1"?>
<!-- Generator: Adobe Illustrator 19.0.0, SVG Export Plug-In . SVG Version: 6.00 Build 0)  -->
<svg xmlns="http://www.w3.org/2000/svg" xmlns:xlink="http://www.w3.org/1999/xlink" version="1.1" id="Capa_1" x="0px" y="0px" viewBox="0 0 512 512" style="enable-background:new 0 0 512 512;" xml:space="preserve" width="512" height="512">
<g>
	<rect x="189.733" y="395.489" style="fill:#58565C;" width="132.534" height="52.353"/>
	<rect x="239.434" y="156.599" style="fill:#58565C;" width="33.133" height="51.4"/>
	<path style="fill:#FFD151;" d="M90.332,380.579v-25.18c0-91.495,74.171-165.666,165.666-165.666   c91.495,0,165.666,74.171,165.666,165.666v25.18H90.332z"/>
	<path style="fill:#F79B4A;" d="M255.998,189.733c-3.359,0-6.691,0.112-10,0.309c86.837,5.172,155.666,77.221,155.666,165.357v25.18   h20v-25.18C421.665,263.904,347.493,189.733,255.998,189.733z"/>
	<path style="fill:#F79B4A;" d="M73.766,399.059v-21.136c0-3.314,2.686-6,6-6h352.467c3.314,0,6,2.686,6,6v21.136   c0,3.314-2.686,6-6,6H79.766C76.453,405.059,73.766,402.373,73.766,399.059z"/>
	<path style="fill:#F27938;" d="M432.233,371.923h-20c3.314,0,6,2.686,6,6v21.137c0,3.313-2.686,6-6,6h20c3.314,0,6-2.687,6-6   v-21.137C438.233,374.609,435.547,371.923,432.233,371.923z"/>
	<path style="fill:#985335;" d="M73.766,479.999v-35.768c0-3.314,2.686-6,6-6h352.467c3.314,0,6,2.686,6,6v35.768H73.766z"/>
	<path style="fill:#87462A;" d="M432.233,438.231h-20c3.314,0,6,2.686,6,6v35.768h20v-35.768   C438.233,440.918,435.547,438.231,432.233,438.231z"/>
	<path style="fill:#87462A;" d="M450.115,471.368H60.908c-2.273,0-4.35,1.284-5.367,3.317l-10.566,21.132   c-1.995,3.989,0.906,8.683,5.367,8.683h405.056c3.904,0,6.768-3.668,5.821-7.455l-5.284-21.132   C455.268,473.241,452.868,471.368,450.115,471.368z"/>
	<path style="fill:#693621;" d="M461.219,497.044l-5.284-21.132c-0.668-2.671-3.068-4.545-5.821-4.545h-20   c2.753,0,5.153,1.874,5.821,4.545l5.284,21.132c0.947,3.787-1.917,7.455-5.821,7.455h20   C459.302,504.5,462.166,500.831,461.219,497.044z"/>
</g>
<g>
	<path d="M462.075,469.548c-0.835-3.339-3.834-5.681-7.276-5.681h-9.066v-25.636c0-4.143-3.358-7.5-7.5-7.5H329.767v-18.173h108.466   c4.142,0,7.5-3.357,7.5-7.5v-33.136c0-4.142-3.358-7.5-7.5-7.5h-9.068v-9.023c0-87.317-64.966-159.735-149.098-171.486V164.1   h25.632c4.142,0,7.5-3.357,7.5-7.5c0-4.143-3.358-7.5-7.5-7.5h-99.4c-4.142,0-7.5,3.357-7.5,7.5c0,4.143,3.358,7.5,7.5,7.5h25.635   v19.813C147.8,195.662,82.832,268.081,82.832,355.399v9.023h-9.066c-4.142,0-7.5,3.358-7.5,7.5v33.136c0,4.143,3.358,7.5,7.5,7.5   h108.466v18.173H73.766c-4.142,0-7.5,3.357-7.5,7.5v25.636H57.2c-2.841,0-5.438,1.605-6.708,4.146l-16.566,33.133   c-1.163,2.325-1.039,5.087,0.328,7.298c1.367,2.211,3.781,3.557,6.38,3.557h422.449c2.31,0,4.49-1.065,5.912-2.885   c1.421-1.82,1.925-4.193,1.364-6.435L462.075,469.548z M246.934,164.1h18.133v18.369c-3.004-0.156-6.027-0.237-9.069-0.237   c-3.04,0-6.062,0.081-9.064,0.236V164.1z M81.266,379.423h8.271c0.261,0.028,0.526,0.043,0.795,0.043s0.534-0.015,0.795-0.043   h36.332c4.142,0,7.5-3.357,7.5-7.5c0-4.142-3.358-7.5-7.5-7.5H97.832v-9.023c0-87.214,70.953-158.167,158.166-158.167   c87.213,0,158.167,70.953,158.167,158.167v9.023H157.428c-4.142,0-7.5,3.358-7.5,7.5c0,4.143,3.358,7.5,7.5,7.5H420.87   c0.261,0.028,0.526,0.043,0.795,0.043c0.269,0,0.534-0.015,0.795-0.043h8.273v18.136H81.266V379.423z M197.233,412.559h117.534   v18.173H197.233V412.559z M81.266,445.731h108.428c0.013,0,0.026,0.002,0.039,0.002c0.013,0,0.026-0.002,0.039-0.002h132.457   c0.013,0,0.026,0.002,0.039,0.002s0.026-0.002,0.039-0.002h108.428v18.136H81.266V445.731z M52.769,497l9.066-18.133h387.108   L453.477,497H52.769z"/>
	<path d="M256,48.132c4.142,0,7.5-3.357,7.5-7.5V7.5c0-4.143-3.358-7.5-7.5-7.5c-4.142,0-7.5,3.357-7.5,7.5v33.132   C248.5,44.774,251.858,48.132,256,48.132z"/>
	<path d="M141.821,73.235c1.389,2.406,3.91,3.751,6.502,3.751c1.273,0,2.562-0.324,3.743-1.006   c3.587-2.071,4.816-6.658,2.745-10.245l-16.566-28.693c-2.071-3.588-6.659-4.815-10.245-2.745   c-3.587,2.071-4.816,6.658-2.745,10.245L141.821,73.235z"/>
	<path d="M37.043,138.244l28.693,16.566c1.181,0.682,2.471,1.006,3.743,1.006c2.592,0,5.113-1.345,6.502-3.751   c2.071-3.587,0.842-8.174-2.745-10.245l-28.693-16.566c-3.588-2.071-8.174-0.843-10.245,2.745   C32.227,131.586,33.456,136.173,37.043,138.244z"/>
	<path d="M48.133,255.999c0-4.143-3.358-7.5-7.5-7.5H7.501c-4.142,0-7.5,3.357-7.5,7.5c0,4.143,3.358,7.5,7.5,7.5h33.132   C44.775,263.499,48.133,260.142,48.133,255.999z"/>
	<path d="M504.499,248.499h-33.132c-4.142,0-7.5,3.357-7.5,7.5c0,4.143,3.358,7.5,7.5,7.5h33.132c4.142,0,7.5-3.357,7.5-7.5   C511.999,251.856,508.641,248.499,504.499,248.499z"/>
	<path d="M442.52,155.816c1.272,0,2.562-0.324,3.743-1.006l28.693-16.566c3.587-2.071,4.816-6.658,2.745-10.245   c-2.071-3.588-6.658-4.815-10.245-2.745l-28.693,16.566c-3.587,2.071-4.816,6.658-2.745,10.245   C437.407,154.472,439.928,155.816,442.52,155.816z"/>
	<path d="M359.933,75.98c1.181,0.682,2.471,1.006,3.743,1.006c2.592,0,5.113-1.345,6.502-3.751l16.566-28.693   c2.071-3.587,0.842-8.174-2.745-10.245c-3.587-2.07-8.174-0.843-10.245,2.745l-16.566,28.693   C355.117,69.322,356.346,73.909,359.933,75.98z"/>
</g>















</svg>
